<?xml version="1.0" encoding="UTF-8" standalone="no"?>
<!DOCTYPE svg PUBLIC "-//W3C//DTD SVG 1.1//EN"
 "http://www.w3.org/Graphics/SVG/1.1/DTD/svg11.dtd">
<!-- Generated by graphviz version 14.0.2 (0)
 -->
<!-- Pages: 1 -->
<svg width="3598pt" height="575pt"
 viewBox="0.00 0.00 3598.00 575.00" xmlns="http://www.w3.org/2000/svg" xmlns:xlink="http://www.w3.org/1999/xlink">
<g id="graph0" class="graph" transform="scale(1 1) rotate(0) translate(4 571)">
<polygon fill="white" stroke="none" points="-4,4 -4,-571 3594.12,-571 3594.12,4 -4,4"/>
<!-- 0 -->
<g id="node1" class="node">
<title>0</title>
<ellipse fill="none" stroke="black" cx="1795.06" cy="-549" rx="197.47" ry="18"/>
<text xml:space="preserve" text-anchor="middle" x="1795.06" y="-544.33" font-family="Times,serif" font-size="14.00">¬ &#39;s, &#39;s ∨ ¬ &#39;p, &#39;s ∨ ¬ &#39;q, &#39;s ∨ ¬ &#39;r, &#39;p ∨ &#39;q ∨ &#39;r</text>
</g>
<!-- 1 -->
<g id="node2" class="node">
<title>1</title>
<ellipse fill="none" stroke="black" cx="1795.06" cy="-460.5" rx="334.78" ry="18"/>
<text xml:space="preserve" text-anchor="middle" x="1795.06" y="-455.82" font-family="Times,serif" font-size="14.00">resolved ⊥ and ⊥ on ⊥ to obtain ¬ &#39;s, &#39;s ∨ ¬ &#39;p, &#39;s ∨ ¬ &#39;q, &#39;s ∨ ¬ &#39;r, &#39;p ∨ &#39;q ∨ &#39;r</text>
</g>
<!-- 0&#45;&gt;1 -->
<g id="edge1" class="edge">
<title>0&#45;&gt;1</title>
<path fill="none" stroke="black" d="M1795.06,-530.91C1795.06,-519.26 1795.06,-503.55 1795.06,-490.02"/>
<polygon fill="black" stroke="black" points="1798.56,-490.36 1795.06,-480.36 1791.56,-490.36 1798.56,-490.36"/>
<text xml:space="preserve" text-anchor="middle" x="1804.06" y="-499.7" font-family="Times,serif" font-size="14.00">init</text>
</g>
<!-- 2 -->
<g id="node3" class="node">
<title>2</title>
<ellipse fill="none" stroke="black" cx="888.06" cy="-372" rx="352.67" ry="18"/>
<text xml:space="preserve" text-anchor="middle" x="888.06" y="-367.32" font-family="Times,serif" font-size="14.00">resolved &#39;p ∨ &#39;q ∨ &#39;r and &#39;s ∨ ¬ &#39;p on &#39;p to obtain ¬ &#39;s, &#39;s ∨ ¬ &#39;q, &#39;s ∨ ¬ &#39;r, &#39;q ∨ &#39;r ∨ &#39;s</text>
</g>
<!-- 1&#45;&gt;2 -->
<g id="edge2" class="edge">
<title>1&#45;&gt;2</title>
<path fill="none" stroke="black" d="M1635.26,-444.26C1474.22,-428.9 1226.5,-405.28 1060.95,-389.49"/>
<polygon fill="black" stroke="black" points="1061.47,-386.02 1051.18,-388.56 1060.8,-392.99 1061.47,-386.02"/>
<text xml:space="preserve" text-anchor="middle" x="1442.3" y="-411.2" font-family="Times,serif" font-size="14.00">resolve</text>
</g>
<!-- 9 -->
<g id="node10" class="node">
<title>9</title>
<ellipse fill="none" stroke="black" cx="2702.06" cy="-372" rx="352.67" ry="18"/>
<text xml:space="preserve" text-anchor="middle" x="2702.06" y="-367.32" font-family="Times,serif" font-size="14.00">resolved &#39;p ∨ &#39;q ∨ &#39;r and &#39;s ∨ ¬ &#39;q on &#39;q to obtain ¬ &#39;s, &#39;s ∨ ¬ &#39;p, &#39;s ∨ ¬ &#39;r, &#39;p ∨ &#39;r ∨ &#39;s</text>
</g>
<!-- 1&#45;&gt;9 -->
<g id="edge11" class="edge">
<title>1&#45;&gt;9</title>
<path fill="none" stroke="black" d="M1954.87,-444.26C2115.9,-428.9 2363.63,-405.28 2529.17,-389.49"/>
<polygon fill="black" stroke="black" points="2529.32,-392.99 2538.94,-388.56 2528.66,-386.02 2529.32,-392.99"/>
<text xml:space="preserve" text-anchor="middle" x="2349.3" y="-411.2" font-family="Times,serif" font-size="14.00">resolve</text>
</g>
<!-- 13 -->
<g id="node14" class="node">
<title>13</title>
<ellipse fill="none" stroke="black" cx="1795.06" cy="-372" rx="353.2" ry="18"/>
<text xml:space="preserve" text-anchor="middle" x="1795.06" y="-367.32" font-family="Times,serif" font-size="14.00">resolved &#39;p ∨ &#39;q ∨ &#39;r and &#39;s ∨ ¬ &#39;r on &#39;r to obtain ¬ &#39;s, &#39;s ∨ ¬ &#39;p, &#39;s ∨ ¬ &#39;q, &#39;p ∨ &#39;q ∨ &#39;s</text>
</g>
<!-- 1&#45;&gt;13 -->
<g id="edge17" class="edge">
<title>1&#45;&gt;13</title>
<path fill="none" stroke="black" d="M1795.06,-442.41C1795.06,-430.76 1795.06,-415.05 1795.06,-401.52"/>
<polygon fill="black" stroke="black" points="1798.56,-401.86 1795.06,-391.86 1791.56,-401.86 1798.56,-401.86"/>
<text xml:space="preserve" text-anchor="middle" x="1814.56" y="-411.2" font-family="Times,serif" font-size="14.00">resolve</text>
</g>
<!-- 3 -->
<g id="node4" class="node">
<title>3</title>
<ellipse fill="none" stroke="black" cx="888.06" cy="-283.5" rx="290.06" ry="18"/>
<text xml:space="preserve" text-anchor="middle" x="888.06" y="-278.82" font-family="Times,serif" font-size="14.00">resolved &#39;q ∨ &#39;r ∨ &#39;s and &#39;s ∨ ¬ &#39;q on &#39;q to obtain ¬ &#39;s, &#39;r ∨ &#39;s, &#39;s ∨ ¬ &#39;r</text>
</g>
<!-- 2&#45;&gt;3 -->
<g id="edge3" class="edge">
<title>2&#45;&gt;3</title>
<path fill="none" stroke="black" d="M888.06,-353.91C888.06,-342.26 888.06,-326.55 888.06,-313.02"/>
<polygon fill="black" stroke="black" points="891.56,-313.36 888.06,-303.36 884.56,-313.36 891.56,-313.36"/>
<text xml:space="preserve" text-anchor="middle" x="907.56" y="-322.7" font-family="Times,serif" font-size="14.00">resolve</text>
</g>
<!-- 7 -->
<g id="node8" class="node">
<title>7</title>
<ellipse fill="none" stroke="black" cx="290.06" cy="-283.5" rx="290.06" ry="18"/>
<text xml:space="preserve" text-anchor="middle" x="290.06" y="-278.82" font-family="Times,serif" font-size="14.00">resolved &#39;q ∨ &#39;r ∨ &#39;s and &#39;s ∨ ¬ &#39;r on &#39;r to obtain ¬ &#39;s, &#39;q ∨ &#39;s, &#39;s ∨ ¬ &#39;q</text>
</g>
<!-- 2&#45;&gt;7 -->
<g id="edge8" class="edge">
<title>2&#45;&gt;7</title>
<path fill="none" stroke="black" d="M774.18,-354.53C670.67,-339.55 518.37,-317.52 412.33,-302.19"/>
<polygon fill="black" stroke="black" points="413.14,-298.77 402.75,-300.8 412.14,-305.7 413.14,-298.77"/>
<text xml:space="preserve" text-anchor="middle" x="662.12" y="-322.7" font-family="Times,serif" font-size="14.00">resolve</text>
</g>
<!-- 4 -->
<g id="node5" class="node">
<title>4</title>
<ellipse fill="none" stroke="black" cx="1828.06" cy="-195" rx="206.41" ry="18"/>
<text xml:space="preserve" text-anchor="middle" x="1828.06" y="-190.32" font-family="Times,serif" font-size="14.00">resolved &#39;r ∨ &#39;s and &#39;s ∨ ¬ &#39;r on &#39;r to obtain &#39;s, ¬ &#39;s</text>
</g>
<!-- 3&#45;&gt;4 -->
<g id="edge4" class="edge">
<title>3&#45;&gt;4</title>
<path fill="none" stroke="black" d="M1027.82,-267.31C1128.49,-256.58 1267.59,-242.17 1390.06,-231 1417.56,-228.49 1554.09,-217.62 1667.5,-208.65"/>
<polygon fill="black" stroke="black" points="1667.55,-212.16 1677.24,-207.88 1667,-205.18 1667.55,-212.16"/>
<text xml:space="preserve" text-anchor="middle" x="1409.56" y="-234.2" font-family="Times,serif" font-size="14.00">resolve</text>
</g>
<!-- 5 -->
<g id="node6" class="node">
<title>5</title>
<ellipse fill="none" stroke="black" cx="1828.06" cy="-106.5" rx="152.75" ry="18"/>
<text xml:space="preserve" text-anchor="middle" x="1828.06" y="-101.83" font-family="Times,serif" font-size="14.00">resolved &#39;s and ¬ &#39;s on &#39;s to obtain ⊥</text>
</g>
<!-- 4&#45;&gt;5 -->
<g id="edge5" class="edge">
<title>4&#45;&gt;5</title>
<path fill="none" stroke="black" d="M1828.06,-176.91C1828.06,-165.26 1828.06,-149.55 1828.06,-136.02"/>
<polygon fill="black" stroke="black" points="1831.56,-136.36 1828.06,-126.36 1824.56,-136.36 1831.56,-136.36"/>
<text xml:space="preserve" text-anchor="middle" x="1847.56" y="-145.7" font-family="Times,serif" font-size="14.00">resolve</text>
</g>
<!-- 6 -->
<g id="node7" class="node">
<title>6</title>
<ellipse fill="none" stroke="black" cx="1828.06" cy="-18" rx="28.83" ry="18"/>
<text xml:space="preserve" text-anchor="middle" x="1828.06" y="-12.95" font-family="Times,serif" font-size="14.00">done</text>
</g>
<!-- 5&#45;&gt;6 -->
<g id="edge6" class="edge">
<title>5&#45;&gt;6</title>
<path fill="none" stroke="black" d="M1828.06,-88.41C1828.06,-76.76 1828.06,-61.05 1828.06,-47.52"/>
<polygon fill="black" stroke="black" points="1831.56,-47.86 1828.06,-37.86 1824.56,-47.86 1831.56,-47.86"/>
<text xml:space="preserve" text-anchor="middle" x="1841.19" y="-57.2" font-family="Times,serif" font-size="14.00">done</text>
</g>
<!-- 6&#45;&gt;6 -->
<g id="edge7" class="edge">
<title>6&#45;&gt;6</title>
<path fill="none" stroke="black" d="M1854.07,-26.2C1865.29,-26.87 1874.89,-24.14 1874.89,-18 1874.89,-14.07 1870.95,-11.53 1865.17,-10.4"/>
<polygon fill="black" stroke="black" points="1865.75,-6.92 1855.58,-9.88 1865.38,-13.91 1865.75,-6.92"/>
</g>
<!-- 8 -->
<g id="node9" class="node">
<title>8</title>
<ellipse fill="none" stroke="black" cx="1392.06" cy="-195" rx="211.15" ry="18"/>
<text xml:space="preserve" text-anchor="middle" x="1392.06" y="-190.32" font-family="Times,serif" font-size="14.00">resolved &#39;q ∨ &#39;s and &#39;s ∨ ¬ &#39;q on &#39;q to obtain &#39;s, ¬ &#39;s</text>
</g>
<!-- 7&#45;&gt;8 -->
<g id="edge9" class="edge">
<title>7&#45;&gt;8</title>
<path fill="none" stroke="black" d="M465.29,-268.75C675.38,-252.25 1024.69,-224.84 1229.16,-208.79"/>
<polygon fill="black" stroke="black" points="1229.4,-212.28 1239.09,-208.01 1228.85,-205.3 1229.4,-212.28"/>
<text xml:space="preserve" text-anchor="middle" x="959.27" y="-234.2" font-family="Times,serif" font-size="14.00">resolve</text>
</g>
<!-- 8&#45;&gt;5 -->
<g id="edge10" class="edge">
<title>8&#45;&gt;5</title>
<path fill="none" stroke="black" d="M1473.05,-177.93C1549.22,-162.82 1662.91,-140.27 1741,-124.77"/>
<polygon fill="black" stroke="black" points="1741.64,-128.21 1750.77,-122.83 1740.28,-121.35 1741.64,-128.21"/>
<text xml:space="preserve" text-anchor="middle" x="1668.61" y="-145.7" font-family="Times,serif" font-size="14.00">resolve</text>
</g>
<!-- 10 -->
<g id="node11" class="node">
<title>10</title>
<ellipse fill="none" stroke="black" cx="2702.06" cy="-283.5" rx="290.06" ry="18"/>
<text xml:space="preserve" text-anchor="middle" x="2702.06" y="-278.82" font-family="Times,serif" font-size="14.00">resolved &#39;p ∨ &#39;r ∨ &#39;s and &#39;s ∨ ¬ &#39;p on &#39;p to obtain ¬ &#39;s, &#39;r ∨ &#39;s, &#39;s ∨ ¬ &#39;r</text>
</g>
<!-- 9&#45;&gt;10 -->
<g id="edge12" class="edge">
<title>9&#45;&gt;10</title>
<path fill="none" stroke="black" d="M2702.06,-353.91C2702.06,-342.26 2702.06,-326.55 2702.06,-313.02"/>
<polygon fill="black" stroke="black" points="2705.56,-313.36 2702.06,-303.36 2698.56,-313.36 2705.56,-313.36"/>
<text xml:space="preserve" text-anchor="middle" x="2721.56" y="-322.7" font-family="Times,serif" font-size="14.00">resolve</text>
</g>
<!-- 11 -->
<g id="node12" class="node">
<title>11</title>
<ellipse fill="none" stroke="black" cx="3300.06" cy="-283.5" rx="290.06" ry="18"/>
<text xml:space="preserve" text-anchor="middle" x="3300.06" y="-278.82" font-family="Times,serif" font-size="14.00">resolved &#39;p ∨ &#39;r ∨ &#39;s and &#39;s ∨ ¬ &#39;r on &#39;r to obtain ¬ &#39;s, &#39;p ∨ &#39;s, &#39;s ∨ ¬ &#39;p</text>
</g>
<!-- 9&#45;&gt;11 -->
<g id="edge14" class="edge">
<title>9&#45;&gt;11</title>
<path fill="none" stroke="black" d="M2815.95,-354.53C2919.46,-339.55 3071.76,-317.52 3177.8,-302.19"/>
<polygon fill="black" stroke="black" points="3177.98,-305.7 3187.38,-300.8 3176.98,-298.77 3177.98,-305.7"/>
<text xml:space="preserve" text-anchor="middle" x="3074.12" y="-322.7" font-family="Times,serif" font-size="14.00">resolve</text>
</g>
<!-- 10&#45;&gt;4 -->
<g id="edge13" class="edge">
<title>10&#45;&gt;4</title>
<path fill="none" stroke="black" d="M2570.94,-267C2478.28,-256.27 2351.15,-242 2239.06,-231 2156.53,-222.9 2064.56,-214.96 1988.58,-208.7"/>
<polygon fill="black" stroke="black" points="1989.26,-205.25 1979,-207.92 1988.68,-212.22 1989.26,-205.25"/>
<text xml:space="preserve" text-anchor="middle" x="2411.46" y="-234.2" font-family="Times,serif" font-size="14.00">resolve</text>
</g>
<!-- 12 -->
<g id="node13" class="node">
<title>12</title>
<ellipse fill="none" stroke="black" cx="2264.06" cy="-195" rx="211.15" ry="18"/>
<text xml:space="preserve" text-anchor="middle" x="2264.06" y="-190.32" font-family="Times,serif" font-size="14.00">resolved &#39;p ∨ &#39;s and &#39;s ∨ ¬ &#39;p on &#39;p to obtain &#39;s, ¬ &#39;s</text>
</g>
<!-- 11&#45;&gt;12 -->
<g id="edge15" class="edge">
<title>11&#45;&gt;12</title>
<path fill="none" stroke="black" d="M3131.59,-268.43C2935.46,-252.06 2613.99,-225.22 2422.33,-209.21"/>
<polygon fill="black" stroke="black" points="2422.8,-205.74 2412.54,-208.4 2422.21,-212.72 2422.8,-205.74"/>
<text xml:space="preserve" text-anchor="middle" x="2894.35" y="-234.2" font-family="Times,serif" font-size="14.00">resolve</text>
</g>
<!-- 12&#45;&gt;5 -->
<g id="edge16" class="edge">
<title>12&#45;&gt;5</title>
<path fill="none" stroke="black" d="M2183.08,-177.93C2106.91,-162.82 1993.21,-140.27 1915.13,-124.77"/>
<polygon fill="black" stroke="black" points="1915.85,-121.35 1905.36,-122.83 1914.48,-128.21 1915.85,-121.35"/>
<text xml:space="preserve" text-anchor="middle" x="2104.61" y="-145.7" font-family="Times,serif" font-size="14.00">resolve</text>
</g>
<!-- 14 -->
<g id="node15" class="node">
<title>14</title>
<ellipse fill="none" stroke="black" cx="1491.06" cy="-283.5" rx="294.8" ry="18"/>
<text xml:space="preserve" text-anchor="middle" x="1491.06" y="-278.82" font-family="Times,serif" font-size="14.00">resolved &#39;p ∨ &#39;q ∨ &#39;s and &#39;s ∨ ¬ &#39;p on &#39;p to obtain ¬ &#39;s, &#39;q ∨ &#39;s, &#39;s ∨ ¬ &#39;q</text>
</g>
<!-- 13&#45;&gt;14 -->
<g id="edge18" class="edge">
<title>13&#45;&gt;14</title>
<path fill="none" stroke="black" d="M1734.64,-353.81C1684.93,-339.66 1614.39,-319.59 1562,-304.68"/>
<polygon fill="black" stroke="black" points="1563.14,-301.37 1552.57,-302 1561.23,-308.1 1563.14,-301.37"/>
<text xml:space="preserve" text-anchor="middle" x="1689.79" y="-322.7" font-family="Times,serif" font-size="14.00">resolve</text>
</g>
<!-- 15 -->
<g id="node16" class="node">
<title>15</title>
<ellipse fill="none" stroke="black" cx="2099.06" cy="-283.5" rx="294.8" ry="18"/>
<text xml:space="preserve" text-anchor="middle" x="2099.06" y="-278.82" font-family="Times,serif" font-size="14.00">resolved &#39;p ∨ &#39;q ∨ &#39;s and &#39;s ∨ ¬ &#39;q on &#39;q to obtain ¬ &#39;s, &#39;p ∨ &#39;s, &#39;s ∨ ¬ &#39;p</text>
</g>
<!-- 13&#45;&gt;15 -->
<g id="edge20" class="edge">
<title>13&#45;&gt;15</title>
<path fill="none" stroke="black" d="M1855.49,-353.81C1905.2,-339.66 1975.74,-319.59 2028.12,-304.68"/>
<polygon fill="black" stroke="black" points="2028.9,-308.1 2037.56,-302 2026.98,-301.37 2028.9,-308.1"/>
<text xml:space="preserve" text-anchor="middle" x="1993.79" y="-322.7" font-family="Times,serif" font-size="14.00">resolve</text>
</g>
<!-- 14&#45;&gt;8 -->
<g id="edge19" class="edge">
<title>14&#45;&gt;8</title>
<path fill="none" stroke="black" d="M1471.5,-265.41C1456.95,-252.7 1436.88,-235.16 1420.55,-220.89"/>
<polygon fill="black" stroke="black" points="1422.89,-218.29 1413.06,-214.35 1418.29,-223.56 1422.89,-218.29"/>
<text xml:space="preserve" text-anchor="middle" x="1469.93" y="-234.2" font-family="Times,serif" font-size="14.00">resolve</text>
</g>
<!-- 15&#45;&gt;12 -->
<g id="edge21" class="edge">
<title>15&#45;&gt;12</title>
<path fill="none" stroke="black" d="M2132.06,-265.2C2157.69,-251.77 2193.43,-233.03 2221.26,-218.44"/>
<polygon fill="black" stroke="black" points="2222.55,-221.71 2229.78,-213.97 2219.3,-215.51 2222.55,-221.71"/>
<text xml:space="preserve" text-anchor="middle" x="2215.84" y="-234.2" font-family="Times,serif" font-size="14.00">resolve</text>
</g>
</g>
</svg>
