<?xml version="1.0" encoding="UTF-8" standalone="no"?>
<!DOCTYPE svg PUBLIC "-//W3C//DTD SVG 1.1//EN"
 "http://www.w3.org/Graphics/SVG/1.1/DTD/svg11.dtd">
<!-- Generated by graphviz version 14.0.2 (0)
 -->
<!-- Pages: 1 -->
<svg width="3191pt" height="575pt"
 viewBox="0.00 0.00 3191.00 575.00" xmlns="http://www.w3.org/2000/svg" xmlns:xlink="http://www.w3.org/1999/xlink">
<g id="graph0" class="graph" transform="scale(1 1) rotate(0) translate(4 571)">
<polygon fill="white" stroke="none" points="-4,4 -4,-571 3186.78,-571 3186.78,4 -4,4"/>
<!-- 0 -->
<g id="node1" class="node">
<title>0</title>
<ellipse fill="none" stroke="black" cx="1591.39" cy="-549" rx="197.47" ry="18"/>
<text xml:space="preserve" text-anchor="middle" x="1591.39" y="-544.33" font-family="Times,serif" font-size="14.00">¬ &#39;s, &#39;s ∨ ¬ &#39;p, &#39;s ∨ ¬ &#39;q, &#39;s ∨ ¬ &#39;r, &#39;p ∨ &#39;q ∨ &#39;r</text>
</g>
<!-- 1 -->
<g id="node2" class="node">
<title>1</title>
<ellipse fill="none" stroke="black" cx="1591.39" cy="-460.5" rx="300.58" ry="18"/>
<text xml:space="preserve" text-anchor="middle" x="1591.39" y="-455.82" font-family="Times,serif" font-size="14.00">¬ &#39;s, &#39;s ∨ ¬ &#39;p, &#39;s ∨ ¬ &#39;q, &#39;s ∨ ¬ &#39;r, &#39;p ∨ &#39;q ∨ &#39;r, resolved ⊥ and ⊥ on ⊥</text>
</g>
<!-- 0&#45;&gt;1 -->
<g id="edge1" class="edge">
<title>0&#45;&gt;1</title>
<path fill="none" stroke="black" d="M1591.39,-530.91C1591.39,-519.26 1591.39,-503.55 1591.39,-490.02"/>
<polygon fill="black" stroke="black" points="1594.89,-490.36 1591.39,-480.36 1587.89,-490.36 1594.89,-490.36"/>
<text xml:space="preserve" text-anchor="middle" x="1603.02" y="-499.7" font-family="Times,serif" font-size="14.00">start</text>
</g>
<!-- 2 -->
<g id="node3" class="node">
<title>2</title>
<ellipse fill="none" stroke="black" cx="786.39" cy="-372" rx="319" ry="18"/>
<text xml:space="preserve" text-anchor="middle" x="786.39" y="-367.32" font-family="Times,serif" font-size="14.00">¬ &#39;s, &#39;s ∨ ¬ &#39;q, &#39;s ∨ ¬ &#39;r, &#39;q ∨ &#39;r ∨ &#39;s, resolved &#39;p ∨ &#39;q ∨ &#39;r and &#39;s ∨ ¬ &#39;p on &#39;p</text>
</g>
<!-- 1&#45;&gt;2 -->
<g id="edge2" class="edge">
<title>1&#45;&gt;2</title>
<path fill="none" stroke="black" d="M1449.33,-444.23C1307.02,-428.94 1088.59,-405.47 941.75,-389.69"/>
<polygon fill="black" stroke="black" points="942.24,-386.23 931.93,-388.64 941.5,-393.19 942.24,-386.23"/>
<text xml:space="preserve" text-anchor="middle" x="1280.49" y="-411.2" font-family="Times,serif" font-size="14.00">resolve</text>
</g>
<!-- 9 -->
<g id="node10" class="node">
<title>9</title>
<ellipse fill="none" stroke="black" cx="2396.39" cy="-372" rx="319" ry="18"/>
<text xml:space="preserve" text-anchor="middle" x="2396.39" y="-367.32" font-family="Times,serif" font-size="14.00">¬ &#39;s, &#39;s ∨ ¬ &#39;p, &#39;s ∨ ¬ &#39;r, &#39;p ∨ &#39;r ∨ &#39;s, resolved &#39;p ∨ &#39;q ∨ &#39;r and &#39;s ∨ ¬ &#39;q on &#39;q</text>
</g>
<!-- 1&#45;&gt;9 -->
<g id="edge11" class="edge">
<title>1&#45;&gt;9</title>
<path fill="none" stroke="black" d="M1733.46,-444.23C1875.77,-428.94 2094.19,-405.47 2241.03,-389.69"/>
<polygon fill="black" stroke="black" points="2241.29,-393.19 2250.85,-388.64 2240.54,-386.23 2241.29,-393.19"/>
<text xml:space="preserve" text-anchor="middle" x="2085.49" y="-411.2" font-family="Times,serif" font-size="14.00">resolve</text>
</g>
<!-- 13 -->
<g id="node14" class="node">
<title>13</title>
<ellipse fill="none" stroke="black" cx="1591.39" cy="-372" rx="319.52" ry="18"/>
<text xml:space="preserve" text-anchor="middle" x="1591.39" y="-367.32" font-family="Times,serif" font-size="14.00">¬ &#39;s, &#39;s ∨ ¬ &#39;p, &#39;s ∨ ¬ &#39;q, &#39;p ∨ &#39;q ∨ &#39;s, resolved &#39;p ∨ &#39;q ∨ &#39;r and &#39;s ∨ ¬ &#39;r on &#39;r</text>
</g>
<!-- 1&#45;&gt;13 -->
<g id="edge17" class="edge">
<title>1&#45;&gt;13</title>
<path fill="none" stroke="black" d="M1591.39,-442.41C1591.39,-430.76 1591.39,-415.05 1591.39,-401.52"/>
<polygon fill="black" stroke="black" points="1594.89,-401.86 1591.39,-391.86 1587.89,-401.86 1594.89,-401.86"/>
<text xml:space="preserve" text-anchor="middle" x="1610.89" y="-411.2" font-family="Times,serif" font-size="14.00">resolve</text>
</g>
<!-- 3 -->
<g id="node4" class="node">
<title>3</title>
<ellipse fill="none" stroke="black" cx="786.39" cy="-283.5" rx="255.86" ry="18"/>
<text xml:space="preserve" text-anchor="middle" x="786.39" y="-278.82" font-family="Times,serif" font-size="14.00">¬ &#39;s, &#39;r ∨ &#39;s, &#39;s ∨ ¬ &#39;r, resolved &#39;q ∨ &#39;r ∨ &#39;s and &#39;s ∨ ¬ &#39;q on &#39;q</text>
</g>
<!-- 2&#45;&gt;3 -->
<g id="edge3" class="edge">
<title>2&#45;&gt;3</title>
<path fill="none" stroke="black" d="M786.39,-353.91C786.39,-342.26 786.39,-326.55 786.39,-313.02"/>
<polygon fill="black" stroke="black" points="789.89,-313.36 786.39,-303.36 782.89,-313.36 789.89,-313.36"/>
<text xml:space="preserve" text-anchor="middle" x="805.89" y="-322.7" font-family="Times,serif" font-size="14.00">resolve</text>
</g>
<!-- 7 -->
<g id="node8" class="node">
<title>7</title>
<ellipse fill="none" stroke="black" cx="256.39" cy="-283.5" rx="256.39" ry="18"/>
<text xml:space="preserve" text-anchor="middle" x="256.39" y="-278.82" font-family="Times,serif" font-size="14.00">¬ &#39;s, &#39;q ∨ &#39;s, &#39;s ∨ ¬ &#39;q, resolved &#39;q ∨ &#39;r ∨ &#39;s and &#39;s ∨ ¬ &#39;r on &#39;r</text>
</g>
<!-- 2&#45;&gt;7 -->
<g id="edge8" class="edge">
<title>2&#45;&gt;7</title>
<path fill="none" stroke="black" d="M685.14,-354.48C593.76,-339.56 459.66,-317.67 365.83,-302.36"/>
<polygon fill="black" stroke="black" points="366.52,-298.93 356.09,-300.77 365.39,-305.84 366.52,-298.93"/>
<text xml:space="preserve" text-anchor="middle" x="588.36" y="-322.7" font-family="Times,serif" font-size="14.00">resolve</text>
</g>
<!-- 4 -->
<g id="node5" class="node">
<title>4</title>
<ellipse fill="none" stroke="black" cx="1615.39" cy="-195" rx="172.74" ry="18"/>
<text xml:space="preserve" text-anchor="middle" x="1615.39" y="-190.32" font-family="Times,serif" font-size="14.00">&#39;s, ¬ &#39;s, resolved &#39;r ∨ &#39;s and &#39;s ∨ ¬ &#39;r on &#39;r</text>
</g>
<!-- 3&#45;&gt;4 -->
<g id="edge4" class="edge">
<title>3&#45;&gt;4</title>
<path fill="none" stroke="black" d="M910.86,-267.37C1000.71,-256.65 1124.97,-242.24 1234.39,-231 1322.73,-221.93 1344.96,-221.13 1433.39,-213 1448.14,-211.64 1463.56,-210.22 1478.92,-208.79"/>
<polygon fill="black" stroke="black" points="1478.94,-212.3 1488.57,-207.89 1478.29,-205.33 1478.94,-212.3"/>
<text xml:space="preserve" text-anchor="middle" x="1253.89" y="-234.2" font-family="Times,serif" font-size="14.00">resolve</text>
</g>
<!-- 5 -->
<g id="node6" class="node">
<title>5</title>
<ellipse fill="none" stroke="black" cx="1615.39" cy="-106.5" rx="119.08" ry="18"/>
<text xml:space="preserve" text-anchor="middle" x="1615.39" y="-101.83" font-family="Times,serif" font-size="14.00">⊥, resolved &#39;s and ¬ &#39;s on &#39;s</text>
</g>
<!-- 4&#45;&gt;5 -->
<g id="edge5" class="edge">
<title>4&#45;&gt;5</title>
<path fill="none" stroke="black" d="M1615.39,-176.91C1615.39,-165.26 1615.39,-149.55 1615.39,-136.02"/>
<polygon fill="black" stroke="black" points="1618.89,-136.36 1615.39,-126.36 1611.89,-136.36 1618.89,-136.36"/>
<text xml:space="preserve" text-anchor="middle" x="1634.89" y="-145.7" font-family="Times,serif" font-size="14.00">resolve</text>
</g>
<!-- 6 -->
<g id="node7" class="node">
<title>6</title>
<ellipse fill="none" stroke="black" cx="1615.39" cy="-18" rx="28.83" ry="18"/>
<text xml:space="preserve" text-anchor="middle" x="1615.39" y="-12.95" font-family="Times,serif" font-size="14.00">done</text>
</g>
<!-- 5&#45;&gt;6 -->
<g id="edge6" class="edge">
<title>5&#45;&gt;6</title>
<path fill="none" stroke="black" d="M1615.39,-88.41C1615.39,-76.76 1615.39,-61.05 1615.39,-47.52"/>
<polygon fill="black" stroke="black" points="1618.89,-47.86 1615.39,-37.86 1611.89,-47.86 1618.89,-47.86"/>
<text xml:space="preserve" text-anchor="middle" x="1628.52" y="-57.2" font-family="Times,serif" font-size="14.00">done</text>
</g>
<!-- 6&#45;&gt;6 -->
<g id="edge7" class="edge">
<title>6&#45;&gt;6</title>
<path fill="none" stroke="black" d="M1641.4,-26.2C1652.62,-26.87 1662.22,-24.14 1662.22,-18 1662.22,-14.07 1658.28,-11.53 1652.5,-10.4"/>
<polygon fill="black" stroke="black" points="1653.08,-6.92 1642.91,-9.88 1652.71,-13.91 1653.08,-6.92"/>
</g>
<!-- 8 -->
<g id="node9" class="node">
<title>8</title>
<ellipse fill="none" stroke="black" cx="1247.39" cy="-195" rx="177.47" ry="18"/>
<text xml:space="preserve" text-anchor="middle" x="1247.39" y="-190.32" font-family="Times,serif" font-size="14.00">&#39;s, ¬ &#39;s, resolved &#39;q ∨ &#39;s and &#39;s ∨ ¬ &#39;q on &#39;q</text>
</g>
<!-- 7&#45;&gt;8 -->
<g id="edge9" class="edge">
<title>7&#45;&gt;8</title>
<path fill="none" stroke="black" d="M412.87,-268.84C603.06,-252.24 921.27,-224.47 1104.91,-208.44"/>
<polygon fill="black" stroke="black" points="1105.1,-211.93 1114.75,-207.58 1104.49,-204.96 1105.1,-211.93"/>
<text xml:space="preserve" text-anchor="middle" x="860.15" y="-234.2" font-family="Times,serif" font-size="14.00">resolve</text>
</g>
<!-- 8&#45;&gt;5 -->
<g id="edge10" class="edge">
<title>8&#45;&gt;5</title>
<path fill="none" stroke="black" d="M1315.75,-177.93C1380,-162.83 1475.89,-140.29 1541.8,-124.8"/>
<polygon fill="black" stroke="black" points="1542.51,-128.23 1551.45,-122.53 1540.91,-121.41 1542.51,-128.23"/>
<text xml:space="preserve" text-anchor="middle" x="1483.85" y="-145.7" font-family="Times,serif" font-size="14.00">resolve</text>
</g>
<!-- 10 -->
<g id="node11" class="node">
<title>10</title>
<ellipse fill="none" stroke="black" cx="2396.39" cy="-283.5" rx="255.86" ry="18"/>
<text xml:space="preserve" text-anchor="middle" x="2396.39" y="-278.82" font-family="Times,serif" font-size="14.00">¬ &#39;s, &#39;r ∨ &#39;s, &#39;s ∨ ¬ &#39;r, resolved &#39;p ∨ &#39;r ∨ &#39;s and &#39;s ∨ ¬ &#39;p on &#39;p</text>
</g>
<!-- 9&#45;&gt;10 -->
<g id="edge12" class="edge">
<title>9&#45;&gt;10</title>
<path fill="none" stroke="black" d="M2396.39,-353.91C2396.39,-342.26 2396.39,-326.55 2396.39,-313.02"/>
<polygon fill="black" stroke="black" points="2399.89,-313.36 2396.39,-303.36 2392.89,-313.36 2399.89,-313.36"/>
<text xml:space="preserve" text-anchor="middle" x="2415.89" y="-322.7" font-family="Times,serif" font-size="14.00">resolve</text>
</g>
<!-- 11 -->
<g id="node12" class="node">
<title>11</title>
<ellipse fill="none" stroke="black" cx="2926.39" cy="-283.5" rx="256.39" ry="18"/>
<text xml:space="preserve" text-anchor="middle" x="2926.39" y="-278.82" font-family="Times,serif" font-size="14.00">¬ &#39;s, &#39;p ∨ &#39;s, &#39;s ∨ ¬ &#39;p, resolved &#39;p ∨ &#39;r ∨ &#39;s and &#39;s ∨ ¬ &#39;r on &#39;r</text>
</g>
<!-- 9&#45;&gt;11 -->
<g id="edge14" class="edge">
<title>9&#45;&gt;11</title>
<path fill="none" stroke="black" d="M2497.64,-354.48C2589.02,-339.56 2723.13,-317.67 2816.95,-302.36"/>
<polygon fill="black" stroke="black" points="2817.39,-305.84 2826.7,-300.77 2816.26,-298.93 2817.39,-305.84"/>
<text xml:space="preserve" text-anchor="middle" x="2728.36" y="-322.7" font-family="Times,serif" font-size="14.00">resolve</text>
</g>
<!-- 10&#45;&gt;4 -->
<g id="edge13" class="edge">
<title>10&#45;&gt;4</title>
<path fill="none" stroke="black" d="M2277.91,-267.16C2193.82,-256.47 2078.26,-242.18 1976.39,-231 1933.98,-226.34 1835.3,-216.81 1751.82,-208.87"/>
<polygon fill="black" stroke="black" points="1752.2,-205.39 1741.92,-207.92 1751.54,-212.36 1752.2,-205.39"/>
<text xml:space="preserve" text-anchor="middle" x="2134.6" y="-234.2" font-family="Times,serif" font-size="14.00">resolve</text>
</g>
<!-- 12 -->
<g id="node13" class="node">
<title>12</title>
<ellipse fill="none" stroke="black" cx="1983.39" cy="-195" rx="177.47" ry="18"/>
<text xml:space="preserve" text-anchor="middle" x="1983.39" y="-190.32" font-family="Times,serif" font-size="14.00">&#39;s, ¬ &#39;s, resolved &#39;p ∨ &#39;s and &#39;s ∨ ¬ &#39;p on &#39;p</text>
</g>
<!-- 11&#45;&gt;12 -->
<g id="edge15" class="edge">
<title>11&#45;&gt;12</title>
<path fill="none" stroke="black" d="M2774.62,-268.58C2594.73,-252.08 2297.44,-224.81 2123.03,-208.81"/>
<polygon fill="black" stroke="black" points="2123.51,-205.34 2113.23,-207.91 2122.87,-212.31 2123.51,-205.34"/>
<text xml:space="preserve" text-anchor="middle" x="2558.85" y="-234.2" font-family="Times,serif" font-size="14.00">resolve</text>
</g>
<!-- 12&#45;&gt;5 -->
<g id="edge16" class="edge">
<title>12&#45;&gt;5</title>
<path fill="none" stroke="black" d="M1915.04,-177.93C1850.78,-162.83 1754.89,-140.29 1688.99,-124.8"/>
<polygon fill="black" stroke="black" points="1689.87,-121.41 1679.33,-122.53 1688.27,-128.23 1689.87,-121.41"/>
<text xml:space="preserve" text-anchor="middle" x="1851.85" y="-145.7" font-family="Times,serif" font-size="14.00">resolve</text>
</g>
<!-- 14 -->
<g id="node15" class="node">
<title>14</title>
<ellipse fill="none" stroke="black" cx="1321.39" cy="-283.5" rx="261.13" ry="18"/>
<text xml:space="preserve" text-anchor="middle" x="1321.39" y="-278.82" font-family="Times,serif" font-size="14.00">¬ &#39;s, &#39;q ∨ &#39;s, &#39;s ∨ ¬ &#39;q, resolved &#39;p ∨ &#39;q ∨ &#39;s and &#39;s ∨ ¬ &#39;p on &#39;p</text>
</g>
<!-- 13&#45;&gt;14 -->
<g id="edge18" class="edge">
<title>13&#45;&gt;14</title>
<path fill="none" stroke="black" d="M1537.72,-353.81C1493.87,-339.76 1431.77,-319.86 1385.34,-304.99"/>
<polygon fill="black" stroke="black" points="1386.53,-301.69 1375.94,-301.97 1384.39,-308.36 1386.53,-301.69"/>
<text xml:space="preserve" text-anchor="middle" x="1500.07" y="-322.7" font-family="Times,serif" font-size="14.00">resolve</text>
</g>
<!-- 15 -->
<g id="node16" class="node">
<title>15</title>
<ellipse fill="none" stroke="black" cx="1861.39" cy="-283.5" rx="261.13" ry="18"/>
<text xml:space="preserve" text-anchor="middle" x="1861.39" y="-278.82" font-family="Times,serif" font-size="14.00">¬ &#39;s, &#39;p ∨ &#39;s, &#39;s ∨ ¬ &#39;p, resolved &#39;p ∨ &#39;q ∨ &#39;s and &#39;s ∨ ¬ &#39;q on &#39;q</text>
</g>
<!-- 13&#45;&gt;15 -->
<g id="edge20" class="edge">
<title>13&#45;&gt;15</title>
<path fill="none" stroke="black" d="M1645.06,-353.81C1688.91,-339.76 1751.01,-319.86 1797.44,-304.99"/>
<polygon fill="black" stroke="black" points="1798.39,-308.36 1806.85,-301.97 1796.25,-301.69 1798.39,-308.36"/>
<text xml:space="preserve" text-anchor="middle" x="1770.07" y="-322.7" font-family="Times,serif" font-size="14.00">resolve</text>
</g>
<!-- 14&#45;&gt;8 -->
<g id="edge19" class="edge">
<title>14&#45;&gt;8</title>
<path fill="none" stroke="black" d="M1306.77,-265.41C1296.2,-253.05 1281.72,-236.13 1269.71,-222.08"/>
<polygon fill="black" stroke="black" points="1272.38,-219.82 1263.22,-214.5 1267.06,-224.37 1272.38,-219.82"/>
<text xml:space="preserve" text-anchor="middle" x="1310.52" y="-234.2" font-family="Times,serif" font-size="14.00">resolve</text>
</g>
<!-- 15&#45;&gt;12 -->
<g id="edge21" class="edge">
<title>15&#45;&gt;12</title>
<path fill="none" stroke="black" d="M1885.79,-265.2C1904.16,-252.18 1929.55,-234.17 1949.83,-219.79"/>
<polygon fill="black" stroke="black" points="1951.67,-222.78 1957.8,-214.14 1947.62,-217.07 1951.67,-222.78"/>
<text xml:space="preserve" text-anchor="middle" x="1952.82" y="-234.2" font-family="Times,serif" font-size="14.00">resolve</text>
</g>
</g>
</svg>
